<svg id="Group_1164" data-name="Group 1164" xmlns="http://www.w3.org/2000/svg" width="112.5" height="110.853" viewBox="0 0 112.5 110.853">
  <path id="Path_1" data-name="Path 1" d="M395.12,40.754c.358-.335.858-1.064,1.385-.609a38,38,0,0,1,8.3,16.915c1.158-.471,2.17-1.232,3.316-1.73a115.07,115.07,0,0,1,23.534-8.369c.261-.06.527-.088.8-.123A75.81,75.81,0,0,1,431.181,58.1,65.174,65.174,0,0,1,427.3,71.571a8.187,8.187,0,0,0-.64,1.79c9.026.191,17.827,2.812,26.073,6.345.021.039.062.119.084.16-5.668,7.2-11.793,14.126-18.981,19.856-.885.743-1.868,1.368-2.728,2.142,5.522,4.658,9.4,10.992,12.05,17.654a106.373,106.373,0,0,1-25.62,7.748,38.478,38.478,0,0,1,.2,7.528,43.4,43.4,0,0,1-1.483,7.674,7.262,7.262,0,0,1-.613,1.741,91.425,91.425,0,0,1-14.3-2.242,35.324,35.324,0,0,1-4.327-1.317,4.244,4.244,0,0,0-.965-.226,29.362,29.362,0,0,1-5.491,7.655,27.179,27.179,0,0,1-2.93,2.71.814.814,0,0,1-.821-.16,53.6,53.6,0,0,1-9.9-7.8,16.716,16.716,0,0,0-1.224-1.212,28.252,28.252,0,0,1-9.375,3.981,8.159,8.159,0,0,1-1.167.154,44.745,44.745,0,0,1-4.36-8.752,15.042,15.042,0,0,0-.846-2.294,25.648,25.648,0,0,1-9.848-1.064,40.953,40.953,0,0,1-.379-8.8,13.785,13.785,0,0,1,.323-2.195,15.38,15.38,0,0,0,5.4.872,25.227,25.227,0,0,0,4.606-.393c-.669,3.8-1.014,7.771.041,11.534,3.691-.36,6.834-2.555,9.783-4.623a31.691,31.691,0,0,0,5.174,10.739c.245.311.613.751,1.055.49a16.11,16.11,0,0,0,4.339-4.876,37.067,37.067,0,0,0,2.613-4.95,37.327,37.327,0,0,0,12.112,8.517,3.815,3.815,0,0,0,.992.216,19.1,19.1,0,0,0,1.6-6.993,35.954,35.954,0,0,0-.414-7.526c6.551,1.584,13.393,2.6,20.109,1.551a24.129,24.129,0,0,0-4.886-10.482,57.865,57.865,0,0,0-4.006-4.748,84.644,84.644,0,0,0,10.743-3.633,54.739,54.739,0,0,0,11.684-6.46,24.574,24.574,0,0,0-7.339-4.52A55.106,55.106,0,0,0,411.132,93.9c.008-.076.025-.226.033-.3A84.043,84.043,0,0,0,418,86.412,55.843,55.843,0,0,0,425.05,76.35a17.775,17.775,0,0,0,1.411-2.983,38.32,38.32,0,0,0-6.23.267,62.209,62.209,0,0,0-9.332,2c-2.948.839-5.828,1.885-8.676,3.01a66.5,66.5,0,0,0,2.757-12.013,30.563,30.563,0,0,0,.2-6.546,11.866,11.866,0,0,0-.463-2.911,51.049,51.049,0,0,0-8.838,6.324,82.432,82.432,0,0,0-9.34,9.4,46.59,46.59,0,0,0-2.129-6.178c-1.309-2.975-2.889-6.063-5.629-7.956a48.593,48.593,0,0,0-4.763,8.807,64.152,64.152,0,0,0-3.23,9.509c-3.308-2.637-7.184-5.04-11.548-5.09a25.729,25.729,0,0,0-.617,6.906,55.916,55.916,0,0,0,.889,8.519c-3.584-.138-7.376.093-10.571,1.884-.389.14-.286.607-.232.924a26.5,26.5,0,0,0,4.732,8.962c.208.348.788.7.508,1.156-3.041,1.74-6.152,3.724-8.022,6.781a14.809,14.809,0,0,0,3.915,3.281,31.257,31.257,0,0,0,4.779,2.312,23.208,23.208,0,0,0-4.58,9.894,25.588,25.588,0,0,1-6.228-3.716c-.737-.545-1.352-1.237-2.109-1.755a33,33,0,0,1,4.141-10.027c-.648-1.008-1.469-1.893-2.061-2.94a39.663,39.663,0,0,1-3.465-7,16.169,16.169,0,0,1,1.8-2.224,33.044,33.044,0,0,1,4.322-4.026c.644-.471,1.317-.9,1.961-1.37a17.107,17.107,0,0,0-.389-2.489,57.575,57.575,0,0,1-.64-12.054,12.77,12.77,0,0,0,1.413-.584,26.175,26.175,0,0,1,10.385-2.477c1.218-6.388,3.652-12.453,6.215-18.4a28.276,28.276,0,0,1,9.406,2.572,24.231,24.231,0,0,1,4.034,2.522c1.644-2.2,3.259-4.446,5.1-6.5,2.222-2.7,4.724-5.143,7.186-7.618,1.329-1.269,2.627-2.572,4.016-3.777Z" transform="translate(-340.32 -40)" fill="#7cd0f5"/>
  <path id="Path_2" data-name="Path 2" d="M419.1,134.6a51.045,51.045,0,0,1,8.838-6.324,11.867,11.867,0,0,1,.463,2.911,30.563,30.563,0,0,1-.2,6.546,66.5,66.5,0,0,1-2.757,12.013c2.849-1.125,5.728-2.171,8.676-3.01a62.208,62.208,0,0,1,9.332-2,38.319,38.319,0,0,1,6.23-.267,17.774,17.774,0,0,1-1.411,2.983,55.844,55.844,0,0,1-7.047,10.062,84.049,84.049,0,0,1-6.837,7.192c-.008.076-.025.226-.033.3a55.107,55.107,0,0,1,12.507,3.463,24.574,24.574,0,0,1,7.339,4.52,54.741,54.741,0,0,1-11.684,6.46,84.643,84.643,0,0,1-10.743,3.633,57.88,57.88,0,0,1,4.006,4.748,24.129,24.129,0,0,1,4.886,10.482c-6.717,1.051-13.558.033-20.109-1.551a35.954,35.954,0,0,1,.414,7.526,19.1,19.1,0,0,1-1.6,6.993,3.816,3.816,0,0,1-.992-.216,37.327,37.327,0,0,1-12.112-8.517,37.068,37.068,0,0,1-2.613,4.95,16.111,16.111,0,0,1-4.339,4.876c-.442.261-.809-.179-1.055-.49a31.691,31.691,0,0,1-5.174-10.739c-2.95,2.068-6.092,4.263-9.783,4.623-1.055-3.763-.71-7.736-.041-11.534a25.226,25.226,0,0,1-4.606.393,15.38,15.38,0,0,1-5.4-.872l.006-.043a23.208,23.208,0,0,1,4.58-9.894,31.255,31.255,0,0,1-4.779-2.312,14.807,14.807,0,0,1-3.915-3.281c1.87-3.057,4.981-5.041,8.022-6.781.28-.451-.3-.807-.508-1.156a26.494,26.494,0,0,1-4.732-8.962c-.055-.317-.158-.784.232-.924,3.195-1.79,6.987-2.022,10.571-1.884a55.92,55.92,0,0,1-.889-8.519,25.732,25.732,0,0,1,.617-6.906c4.364.051,8.24,2.454,11.548,5.09a64.152,64.152,0,0,1,3.23-9.509A48.588,48.588,0,0,1,402,129.869c2.74,1.893,4.32,4.981,5.629,7.956A46.58,46.58,0,0,1,409.762,144a82.436,82.436,0,0,1,9.34-9.4m-13.052,14.2a48.566,48.566,0,0,0-2.784,4.417c-.874,1.331-1.469,2.814-2.238,4.2-.817-1.341-1.424-2.808-2.376-4.069a23.1,23.1,0,0,0-4.658-5.1,44.285,44.285,0,0,0-1.576,13.268,4.611,4.611,0,0,1-.936-.395,21.215,21.215,0,0,0-7.785-2.467,2.881,2.881,0,0,0-.932.006c.377,1.167.6,2.378,1.012,3.534a31.63,31.63,0,0,0,3.012,6.656,25.308,25.308,0,0,0-7.38,1.605,7.22,7.22,0,0,0-1.889.934,25.307,25.307,0,0,0,4.964,4.355c.774.539,1.633.94,2.407,1.477A29.517,29.517,0,0,0,377.9,183.7a3.317,3.317,0,0,0,.759.337,24.2,24.2,0,0,0,5.248.92c.948.018,1.9-.008,2.845-.018-.549,1.255-1.284,2.421-1.761,3.709a21.626,21.626,0,0,0-1.615,5.507,21.914,21.914,0,0,0,6.958-2.5,13.685,13.685,0,0,1,1.666-.932,30.928,30.928,0,0,0,.461,7.557,13.124,13.124,0,0,0,.671,2.691,23.929,23.929,0,0,0,2.175-2.014,25.035,25.035,0,0,0,4.292-5.746,7.814,7.814,0,0,1,1.033,1.767,32.123,32.123,0,0,0,5.353,7.26c.284.3.471-.208.551-.418a28.466,28.466,0,0,0,1.831-10.217l.21-.21a40.787,40.787,0,0,0,11.867,5.294,9.216,9.216,0,0,0-.438-2.574,33.511,33.511,0,0,0-2.312-6.326c-.481-1.023-1.148-1.948-1.613-2.975a50.712,50.712,0,0,0,15.473-1.673.99.99,0,0,0-.315-.49,34.821,34.821,0,0,0-11.332-7.458c.123-.354.492-.473.788-.644a56.637,56.637,0,0,0,11.515-7.925,9.653,9.653,0,0,0,1.878-1.691,48.359,48.359,0,0,0-11.468-.475c-1.605.054-3.177.428-4.777.537a12.1,12.1,0,0,1,1.113-1.734,35.5,35.5,0,0,0,2.66-4.582,48.4,48.4,0,0,0,2.773-5.946,15.7,15.7,0,0,0,.94-2.9,71.2,71.2,0,0,0-6.526,3.16,50.2,50.2,0,0,0-8.168,5.545,10.718,10.718,0,0,1,.13-2.3,39.77,39.77,0,0,0-.755-10.9,3.126,3.126,0,0,0-.374-1.189c-1.29,1.475-2.37,3.113-3.584,4.65Z" transform="translate(-363.54 -111.1)" fill="#02aae8"/>
  <path id="Path_3" data-name="Path 3" d="M440.691,214.517c1.214-1.537,2.294-3.175,3.584-4.65a3.125,3.125,0,0,1,.374,1.189,39.77,39.77,0,0,1,.755,10.9,10.716,10.716,0,0,0-.13,2.3,50.207,50.207,0,0,1,8.168-5.545,71.2,71.2,0,0,1,6.526-3.16,15.71,15.71,0,0,1-.94,2.9,48.4,48.4,0,0,1-2.773,5.946,35.489,35.489,0,0,1-2.66,4.582,12.1,12.1,0,0,0-1.113,1.734c1.6-.109,3.172-.483,4.777-.537a48.358,48.358,0,0,1,11.468.475,9.653,9.653,0,0,1-1.878,1.691,56.637,56.637,0,0,1-11.515,7.925c-.3.171-.665.29-.788.644a34.821,34.821,0,0,1,11.332,7.458.99.99,0,0,1,.315.49,50.713,50.713,0,0,1-15.473,1.673c.465,1.027,1.132,1.952,1.613,2.975a33.508,33.508,0,0,1,2.312,6.326,9.215,9.215,0,0,1,.438,2.574,40.786,40.786,0,0,1-11.867-5.294l-.21.21a28.466,28.466,0,0,1-1.831,10.217c-.08.21-.267.72-.551.418a32.124,32.124,0,0,1-5.353-7.26,7.812,7.812,0,0,0-1.033-1.767,25.035,25.035,0,0,1-4.292,5.746,23.929,23.929,0,0,1-2.175,2.014A13.128,13.128,0,0,1,427.1,264a30.928,30.928,0,0,1-.461-7.557,13.685,13.685,0,0,0-1.666.932,21.913,21.913,0,0,1-6.958,2.5,21.626,21.626,0,0,1,1.615-5.507c.477-1.288,1.212-2.454,1.761-3.709-.948.01-1.9.035-2.845.018a24.2,24.2,0,0,1-5.248-.92,3.315,3.315,0,0,1-.759-.337,29.518,29.518,0,0,1,6.991-6.479c-.774-.537-1.632-.938-2.407-1.477a25.308,25.308,0,0,1-4.964-4.355,7.22,7.22,0,0,1,1.889-.934,25.307,25.307,0,0,1,7.38-1.605,31.631,31.631,0,0,1-3.012-6.656c-.413-1.156-.634-2.366-1.012-3.533a2.881,2.881,0,0,1,.932-.006,21.215,21.215,0,0,1,7.785,2.467,4.611,4.611,0,0,0,.936.395,44.283,44.283,0,0,1,1.576-13.268,23.1,23.1,0,0,1,4.658,5.1c.951,1.261,1.559,2.728,2.376,4.069.769-1.387,1.364-2.87,2.238-4.2a48.568,48.568,0,0,1,2.784-4.417m-5.036,8.984a30.78,30.78,0,0,0-2.646,9.82,18.89,18.89,0,0,0-4.341-4.753,5.533,5.533,0,0,0-1.514-.975,22.846,22.846,0,0,0,1.535,7.355,4.115,4.115,0,0,0,.562,1.125l-.465-.08a16.252,16.252,0,0,0-7.182-1.329,16.757,16.757,0,0,0,5.2,5.374c.021.068.064.2.088.267a18.066,18.066,0,0,0-7.176,2.637,17.5,17.5,0,0,0,7.227,1.687,2.854,2.854,0,0,1-.313.337,21.187,21.187,0,0,0-5.006,5.58,18.2,18.2,0,0,0,7.388-2.273,19.944,19.944,0,0,0-2.23,7.9,19.413,19.413,0,0,0,5.687-5.8,22.4,22.4,0,0,0,1.8,8.145l.233-.136a22.164,22.164,0,0,0,2.333-8.046,21.081,21.081,0,0,0,6.123,6.45,20.775,20.775,0,0,0-1.971-8.7,25.168,25.168,0,0,0,9.464,2.362,21.062,21.062,0,0,0-6.814-6.584,29.859,29.859,0,0,0,10.285-2.977l.031-.167a25.473,25.473,0,0,0-10-1.767,35.636,35.636,0,0,0,8.233-8.013,30,30,0,0,0-8.542,2.847,20.964,20.964,0,0,1-1.919.983,28.646,28.646,0,0,0,3.288-10.258,33.9,33.9,0,0,0-7.341,8.277,24.009,24.009,0,0,0-2.02-9.285Z" transform="translate(-398.182 -176.815)" fill="#006fb8"/>
</svg>
