<svg xmlns="http://www.w3.org/2000/svg" width="284.615" height="245.785" viewBox="0 0 284.615 245.785">
  <path id="Path_1254" data-name="Path 1254" d="M1317.032,290.567c-.178-1.091-.356-2.185-.528-3.279s1.083-3.155-.5-3.282c1.354-1.451-.823-17.186-.47-3.279-.147-5.165-.479-9.119-.759-11.359-.166-.559-.289-.95-.433-1.427-.024,1.07.154,3.954.765,9.514-.138-1.245-.261-2.222-.39-3.286-.384-1.924-.759-3.557-1.112-5q-1-2.253-1.781-3.893c-.719-1.176-1.314-2.126-1.811-2.908-1.112-1.42-1.873-2.387-2.254-2.877-.417-.456-.691-.761-.817-.905-.854-.892-1.062-1.176-.54-.809.712.611,1.912,1.626,3.675,3.118-1.416-1.2-2.438-2.078-3.245-2.792.5.384,1.311,1.039,2.4,1.924-1.3-1.063-2.3-1.876-2.871-2.342-2.658-2.387-.6-1.121,7.454,4.085-12.139-7.847-12.594-8.2-.049-1.2-12.544-7-13.06-7.425-.021-1.951-13.039-5.474-13.3-5.69-.009-1.564-13.291-4.126-13.671-4.448-.328-1.519-8.958-1.965-11.593-2.48-8.4-2.4,1.48.285,3.755.744,6.917,1.451-3.009-.672-5-1.1-6.53-1.44.847.027,1.962.079,3.46.158-.058.415.184.48.7.038,1.238.069,2.646.147,4.264.233-1.587-.082-2.981-.175-4.23-.264a6.665,6.665,0,0,0,.74-.792,3.674,3.674,0,0,0,.341-1.406,5.828,5.828,0,0,0-1.274.038c-.205.9-.359,1.564-.439,1.749a1.292,1.292,0,0,0-.086.357c-2.25-.171-3.921-.333-4.875-.429-1.584-.388-1.627-.542-.028-.621.012-.058.089-.13.574-.274.608-.182,2.164-2,3.816-3.032a35.4,35.4,0,0,1,2.763-5.645c.185-2.452.513-4.339,1.259-4.17-.663-3.419-1.332-5.258-.8-4.671-3.408-5.076-3.595-5.45,1.188-.8-6.758-6.609-6.088-6.324,4.276.113-11.854-7.36-11.9-7.422,1.084-3.094-8.4-2.8-11.01-3.57-8.259-3.4-.153-.11.844-.24,3.073-.525.629-.25,1.44-.59,2.425-1.015a42.127,42.127,0,0,0,6.067-6.509c-6.368,7.576-.891-1.08-.522-4.17a16.941,16.941,0,0,0-3.558-6.338,32.773,32.773,0,0,0-5.732-5.114c-2.125-1.53-4.381-2.9-6.549-4.164l-8.925-5.2q-40.166-23.371-80.326-46.743c-25.433-14.8-50.868-29.6-76.034-45.041-20.3-12.456-43.562-32.441-65.129-43.632-3.079-1.6-6.128-3.018-9.125-4.212-.172,2.047-3.616,4.836-.863,5.522-3.614,2.044-9.02,5.415-2.2,4.723-7.62,1.982-7.789,9.8-3.147,4.208a16.908,16.908,0,0,0-2.054,3.124A52,52,0,0,0,1057,79.02a9.7,9.7,0,0,1,.546,2.219c-.114.429-1.185-1.379-3.794-5.57,2.6,4.2,3.951,6.66,4.074,6.636-.022.357-1.268-1.763-4.163-5.947,2.892,4.188,4.129,6.448,4.034,6.187-.175.151-.847-.593-1.962-1.9-.737-.964-1.6-2.068-2.763-3.43,1.117,1.31,1.962,2.39,2.689,3.344-.826-.977-1.851-2.209-3.236-3.786,2.8,3.2,4.354,5.405,4.909,6,.058.079.153.206.2.271-.043.093-.144.1-.276.065-.8-.864-2.293-2.716-4.762-5.258,2.438,2.514,3.9,4.373,4.691,5.278-.725-.295-2.441-1.91-5.419-4.6,3.009,2.716,4.811,4.476,5.643,4.856.058.062.107.106.156.154-.764-.175-2.591-1.876-5.8-4.743,3.592,3.21,5.461,5.062,6.014,4.863.028,0,.114.1.123.069-.4.809-2.573-.967-6.595-4.39,4.016,3.44,6.11,5.47,6.417,4.723-.3.669-1.876-.415-4.547-2.6-.565-.48-1.1-.933-1.765-1.516.323.281.562.5.859.768-.414-.35-.771-.634-1.234-1.025.534.449.958.8,1.434,1.2,3.371,2.994,5.382,5.045,5.821,4.321-.154.49-.675.748-1.332.868.018-.045.064-.075.083-.12-.022.041-.074.079-.1.12a5.2,5.2,0,0,1-3.242-.789,16.48,16.48,0,0,1-2.576-2.538,16.644,16.644,0,0,0,2.554,2.531,9.986,9.986,0,0,1-3.031-2.559,6.473,6.473,0,0,0,4.651,3.546c.15.075.335.233.476.292l0-.01c-.138-.058-.307-.2-.455-.278a4.313,4.313,0,0,0,1.434.031,2.628,2.628,0,0,1-.3.367l.006,0a1.818,1.818,0,0,0,.341-.381,3.427,3.427,0,0,0,1.127-.3l.049.271c.055-.093.2-.1.221-.216-.049.082-.154.144-.218.219.021.13.04.223.062.343.169-.141.448-.2.537-.388-.077.24-.338.3-.531.425.034.185.071.388.1.542a3.689,3.689,0,0,1-.721.538,5.643,5.643,0,0,1-.9-.075c-.046.058-.058.12-.107.171a1.42,1.42,0,0,0,.1-.171c-.08,0-.166-.014-.249-.021a5.183,5.183,0,0,1-1.28.662l-.07,0,.04.01a6.907,6.907,0,0,1-1.188.329,11.308,11.308,0,0,1-2.68,1.235c-.031-.007-.058-.017-.086-.024l-.031.014a.714.714,0,0,1,.083.021c-.233.072-.451.137-.675.189a6.71,6.71,0,0,1-1.474.261c.135-.01.295-.058.439-.082a4.032,4.032,0,0,1-.417-.021l.064-.024a5.658,5.658,0,0,0,1.256-.154c.19-.062.39-.151.586-.226.046.01.086.024.135.034l.031-.01c-.049-.007-.092-.024-.138-.034a10.528,10.528,0,0,0,2.18-1.108,6.7,6.7,0,0,1-.786.024l-.193.062a12.04,12.04,0,0,1-1.738.888l-.034-.021a9.148,9.148,0,0,0,1.256-.765c-.129.027-.258.062-.387.079a7.375,7.375,0,0,1-1.035.518c-.025-.017-.043-.051-.07-.072a6.458,6.458,0,0,0,.718-.391l0,0h0c.166-.11.307-.247.464-.37a3.4,3.4,0,0,0,.374.051c-.116.075-.23.144-.347.213.11-.027.227-.038.341-.072.049-.041.092-.082.141-.12.046,0,.089.017.138.017s.067-.034.1-.048c-.058-.007-.117-.014-.178-.024a1.71,1.71,0,0,0,.144-.123c-.04,0-.08-.017-.119-.017-.055.038-.1.086-.157.123-.126-.017-.261-.017-.381-.045.052-.045.1-.093.157-.137l-.077-.01c-.055.045-.116.089-.172.134a3.935,3.935,0,0,1-.6-.24l.074-.093-.022-.01c-.027.031-.052.062-.08.089a2.9,2.9,0,0,1-1.909-2.538,2.914,2.914,0,0,0,1.821,2.644c-.154.182-.295.37-.461.535a3.091,3.091,0,0,1-.405-.041c.037-.041.08-.055.114-.1-.034.045-.08.058-.114.1l-.04-.017a2.3,2.3,0,0,1-.166-1.228,2.343,2.343,0,0,0,.163,1.228,2.113,2.113,0,0,1-1.63-2.548c-.175,1.591.565,2.39,1.6,2.624a8.083,8.083,0,0,1-1.025.878,3.587,3.587,0,0,1-.534.024c.034.027.043.065.08.089a2.637,2.637,0,0,0,.328,0c-.049.041-.1.086-.144.123l.034-.024c.04-.031.077-.065.117-.1h.024c.052-.048.1-.062.154-.11h-.052a7.964,7.964,0,0,0,1.019-.878c.031.007.062,0,.089.007.046.086.135.127.193.2a8.681,8.681,0,0,1-.777.6,3.827,3.827,0,0,1-.46.072c-.043.045-.092.072-.135.113a4.987,4.987,0,0,0,.571-.168c-.141.106-.276.23-.424.326l-.024.01h.009l-.027.024-.037,0c-.083.031-.16.055-.24.089-.046-.01-.1-.01-.144-.017l-.024.017a.675.675,0,0,0,.116.014l-.058.024c-.043,0-.092.021-.135.027l-.049.038-.059.024c.022-.017.037-.038.062-.055h-.009l-.065.058c-.043.014-.086.034-.129.048.043-.034.083-.055.123-.093-.943.089-1.44-.209-1.2-.929a1.14,1.14,0,0,0,.955.576.786.786,0,0,0,.384.261l.024-.017a.821.821,0,0,1-.35-.243c.1.007.215,0,.329-.007-.034-.021-.046-.062-.077-.089a2.275,2.275,0,0,1-.347-.017c-.184-.274-.224-.645.12-1.245a1.237,1.237,0,0,0-.185,1.221,1.086,1.086,0,0,1-.792-.562,1.882,1.882,0,0,1,.261-.562,2.456,2.456,0,0,0-.27.545,1.676,1.676,0,0,1,.166-1.6,1.9,1.9,0,0,0-.224,1.715c-.319.789.1,1.142.961,1.091-1.839.535-3.043.192-1.421-1.379-.752.734-.989,1.248-.918,1.581.092-.048.114-.079.221-.13-.1.048-.132.082-.221.13.1.473.86.521,1.848.2.19-.13.374-.261.571-.412l.1-.017c-.138.1-.264.254-.405.346l.015,0c.135-.089.261-.247.4-.343l.04-.007c-.141.113-.277.24-.417.343h0c-.08.062-.156.141-.236.2.07-.045.138-.137.209-.185l-.019.014c-.083.055-.163.158-.246.209-.055.038-.107.058-.163.1a.737.737,0,0,0,.089-.034c-.083.051-.141.072-.228.117a8.684,8.684,0,0,1-3.377,1.444c-.512.158-.737.127-.623.017-.583.261-.66.429-.221.185.6.309,2.533-.549,4.7-1.866a18,18,0,0,1-3.9,1.934,9.456,9.456,0,0,1,1.078-.127,9.377,9.377,0,0,0-1.21.168,2.342,2.342,0,0,1-.47.069c-.319.065-.562.13-.823.2a6.171,6.171,0,0,1,.746-.2,1.083,1.083,0,0,1-.458-.024c-.205.151-.316.216-.362.247-.924.23-1.492.364-1.517-.2-.227,1.132.958.552,3.66.418-2.723.192-4.311,1.355-4.406-.055-.246,1.756.8,2.445,3.736,1.554-2.981.981-4.24,1.89-4.356-.477a23.52,23.52,0,0,0,.107,3.69c-.009-.648-.009-1.314.022-1.986-.012.878.018,1.828.067,2.768a9.164,9.164,0,0,0,.4,1.722c.009-.761.03-1.567.07-2.425-.034.847-.049,1.681-.046,2.483.442,1.218,1.1,1.416,2.017-1.087-.948,2.6-1.59,2.929-2,2.14.012.573.025,1.121.05,1.636.384,1.732.924,2,1.531-1.4a16.226,16.226,0,0,1-.684,2.792c-.172,6.369-.277,6.667-1.1.106.78,7.326,1.961,8.615-.746,7.24,2.683,1.492,2.625,1.567-.672,3.635,3.269-1.886,2.594-1.485-.608,4.356,3.15-5.426,1.965-3.354-.421,4.078,2.3-6.42.792-1.152-.277,4.119,3.123-2.939,6.4,2.871,8.75,5.583a18.146,18.146,0,0,1,8.747,5.58c3.224.857,6.226,3.176,8.747,5.58a24.125,24.125,0,0,1,8.747,5.583c3.076.971,5.83,3.611,8.747,5.58,2.947,1.814,5.888,3.6,8.747,5.583,2.929,1.711,5.83,3.721,8.747,5.58l17.494,11.163c13.035,8.317,26.117,16.658,39.739,23.373,13.8,6.8,28.045,11.87,41.818,18.77,15.366,7.693,29.961,17.57,44.486,27.4l77.136,52.227C1318.146,297.118,1317.575,293.846,1317.032,290.567ZM1057.4,82.834c.064.062.175.2.2.192-.006.021-.04,0-.046.014C1057.519,82.992,1057.442,82.889,1057.4,82.834Zm.1.549c.151.045.289.075.356-.007.031.021.111.134.119.11-.037.089-.181.024-.27.034C1057.645,83.472,1057.608,83.485,1057.506,83.383Zm-3.672-1.362c2.333,1.917,3.73,2.891,4.077,2.312C1057.7,85.077,1056.328,84.123,1053.835,82.021Zm-3.512,7.658c-.055.021-.1.034-.159.058.046-.024.089-.055.138-.079Zm-.187-.192c-.144.058-.282.079-.424.123.12-.048.237-.134.356-.192C1050.092,89.439,1050.108,89.47,1050.135,89.487Zm-.061-.075a1.452,1.452,0,0,1-.187-.192c.067-.065.135-.123.2-.192a3.272,3.272,0,0,0,.553.024C1050.454,89.182,1050.267,89.3,1050.074,89.412Zm.467-.953a3.224,3.224,0,0,0,.626.175c-.157.13-.307.261-.476.381a4.387,4.387,0,0,1-.565-.031C1050.276,88.825,1050.4,88.633,1050.541,88.458Zm-.869.542c.1.021.228.014.338.024-.052.051-.092.12-.148.171C1049.807,89.124,1049.715,89.083,1049.671,89Zm.212.226a1.491,1.491,0,0,0,.184.192c-.12.069-.24.13-.363.2-.15.048-.3.1-.451.13A7.956,7.956,0,0,0,1049.884,89.227Zm-.648.532c.151-.048.292-.065.448-.13-.264.144-.525.3-.786.415C1049.014,89.964,1049.122,89.847,1049.236,89.758Zm-.531.4.123.017-.092.017-.071-.01Z" transform="translate(-1036.814 -54.577)" fill="#65a4db" opacity="0.5"/>
</svg>
